<svg width="20" height="20" viewBox="0 0 20 20" fill="none" xmlns="http://www.w3.org/2000/svg">
<path d="M13.75 11.6666C12.5 11.6666 11.5 12 10.75 12.4166C11.9167 13.4166 12.4167 14.5833 12.5 14.6666L12.5833 14.8333V16.6666H19.25V15C19.1667 15 17.8333 11.6666 13.75 11.6666Z" fill="white"/>
<path d="M13.75 9.99996C15.3609 9.99996 16.6667 8.69412 16.6667 7.08329C16.6667 5.47246 15.3609 4.16663 13.75 4.16663C12.1392 4.16663 10.8334 5.47246 10.8334 7.08329C10.8334 8.69412 12.1392 9.99996 13.75 9.99996Z" fill="white"/>
<path d="M3.33337 7.08329C3.33337 5.49996 4.66671 4.16663 6.25004 4.16663C7.83337 4.16663 9.16671 5.49996 9.16671 7.08329C9.16671 8.66663 7.83337 9.99996 6.25004 9.99996C4.66671 9.99996 3.33337 8.66663 3.33337 7.08329ZM6.25004 11.6666C2.16671 11.6666 0.833374 15 0.833374 15V16.6666H11.6667V15C11.6667 15 10.3334 11.6666 6.25004 11.6666Z" fill="white"/>
</svg>
