<svg width="15" height="18" viewBox="0 0 15 18" fill="none" xmlns="http://www.w3.org/2000/svg">
<path d="M7.5 9C6.32143 9 5.35714 10.0125 5.35714 11.25C5.35714 12.4875 6.32143 13.5 7.5 13.5C8.67857 13.5 9.64286 12.4875 9.64286 11.25C9.64286 10.0125 8.67857 9 7.5 9ZM14.5011 4.53867L11.692 1.58906C11.4208 1.30289 11.0089 1.125 10.5837 1.125H2.14286C0.959263 1.125 0 2.13223 0 3.375V14.625C0 15.8678 0.959263 16.875 2.14286 16.875H12.8571C14.0407 16.875 15 15.8678 15 14.625V5.76211C15 5.31562 14.8292 4.8832 14.5011 4.53867ZM4.28571 2.8125H9.10714V5.625H4.28571V2.8125ZM13.3929 14.625C13.3929 14.9356 13.153 15.1875 12.8571 15.1875H2.14286C1.84701 15.1875 1.60714 14.9356 1.60714 14.625V3.375C1.60714 3.06429 1.84701 2.8125 2.14286 2.8125H2.67857V6.46875C2.67857 6.93457 3.0385 7.3125 3.48214 7.3125H9.91071C10.356 7.3125 10.7143 6.93633 10.7143 6.46875V2.94891L13.3343 5.69988C13.3728 5.7375 13.3929 5.79375 13.3929 5.84648V14.625Z" fill="white"/>
</svg>
