<?xml version="1.0" encoding="UTF-8"?>
<svg id="Calque_11" data-name="Calque 11" xmlns="http://www.w3.org/2000/svg" xmlns:xlink="http://www.w3.org/1999/xlink" viewBox="0 0 2000 584.13">
  <defs>
    <linearGradient id="Dégradé_sans_nom_27" data-name="Dégradé sans nom 27" x1="165.45" y1="308.4" x2="308.84" y2="225.61" gradientUnits="userSpaceOnUse">
      <stop offset=".21" stop-color="#d82367"/>
      <stop offset=".8" stop-color="#ec135d"/>
    </linearGradient>
    <linearGradient id="Dégradé_sans_nom_5" data-name="Dégradé sans nom 5" x1="41.45" y1="287.57" x2="523.74" y2="287.57" gradientUnits="userSpaceOnUse">
      <stop offset=".1" stop-color="#0c1e41"/>
      <stop offset=".9" stop-color="#2e3b8c"/>
    </linearGradient>
    <linearGradient id="Dégradé_sans_nom_15" data-name="Dégradé sans nom 15" x1="167.52" y1="449.01" x2="48.1" y2="242.18" gradientUnits="userSpaceOnUse">
      <stop offset=".3" stop-color="#7a14ff"/>
      <stop offset=".7" stop-color="#533292"/>
    </linearGradient>
    <linearGradient id="Dégradé_sans_nom_13" data-name="Dégradé sans nom 13" x1="424.21" y1="273.31" x2="301.55" y2="485.75" gradientUnits="userSpaceOnUse">
      <stop offset=".3" stop-color="#7a14ff"/>
      <stop offset=".7" stop-color="#533292"/>
    </linearGradient>
    <linearGradient id="Dégradé_sans_nom_15-2" data-name="Dégradé sans nom 15" x1="146.11" y1="139.58" x2="388.53" y2="139.58" xlink:href="#Dégradé_sans_nom_15"/>
  </defs>
  <g>
    <polygon points="146.11 128.84 388.53 234.11 433.76 278.82 218.56 437.84 158.21 454.39 128.61 195.7 146.11 128.84" style="fill: #fff;"/>
    <path d="M192.28,350.57V216.86c0-12.25,13.26-19.9,23.87-13.78l115.8,66.86c10.61,6.12,10.61,21.43,0,27.56l-115.8,66.86c-10.61,6.12-23.87-1.53-23.87-13.78Z" style="fill: url(#Dégradé_sans_nom_27);"/>
    <path d="M41.45,104.09V470.62c0,12.51,6.64,24.07,17.45,30.38l94.04,54.86c10.9,6.36,24.37,6.39,35.3,.08l317.44-183.27c10.83-6.25,17.53-17.79,17.58-30.3l.48-108.77c.06-12.61-6.64-24.28-17.56-30.6L188.49,19.22c-10.88-6.3-24.3-6.3-35.19-.01L59.03,73.63c-10.88,6.28-17.58,17.89-17.58,30.45ZM471.67,368.45L94.68,471.8c-18.36,5.03-35.28-11.69-30.46-30.11L163.21,63.53c4.82-18.41,27.77-24.7,41.3-11.32L482.52,327.02c13.54,13.38,7.51,36.4-10.85,41.43Z" style="fill: url(#Dégradé_sans_nom_5);"/>
    <path d="M128.61,195.7l-64.39,245.99c-4.82,18.41,12.1,35.14,30.46,30.11l63.53-17.42-29.6-258.69Z" style="fill: url(#Dégradé_sans_nom_15);"/>
    <path d="M471.67,368.45c18.36-5.03,24.38-28.05,10.85-41.43l-48.75-48.19-215.2,159.01,253.11-69.39Z" style="fill: url(#Dégradé_sans_nom_13);"/>
    <path d="M146.11,128.84l242.41,105.27L204.51,52.21c-13.54-13.38-36.48-7.09-41.3,11.32l-17.1,65.31Z" style="fill: url(#Dégradé_sans_nom_15-2);"/>
  </g>
  <g>
    <path d="M575.01,188.1h132.16v2.17c0,7.09-2.5,13.13-7.49,18.12-5,4.99-11.04,7.49-18.12,7.49h-22.95v148.11h-9.67c-7.09,0-13.13-2.5-18.12-7.49-4.99-4.99-7.49-11.03-7.49-18.12v-122.5h-22.71c-7.09,0-13.13-2.5-18.12-7.49-4.99-4.99-7.49-11.03-7.49-18.12v-2.17Z" style="fill: #fff;"/>
    <path d="M773.13,195.47c13.37-7.65,28.31-11.48,44.82-11.48s31.45,3.83,44.82,11.48c13.37,7.65,23.92,18.32,31.65,32.01,7.73,13.69,11.6,29.2,11.6,46.51s-3.87,32.86-11.6,46.63c-7.73,13.77-18.28,24.49-31.65,32.13-13.37,7.65-28.31,11.48-44.82,11.48s-31.45-3.82-44.82-11.48c-13.37-7.65-23.92-18.36-31.65-32.13s-11.6-29.31-11.6-46.63,3.87-32.82,11.6-46.51c7.73-13.69,18.28-24.36,31.65-32.01Zm71.88,27.91c-7.81-4.67-16.88-7.01-27.18-7.01s-19.37,2.34-27.18,7.01c-7.81,4.67-13.89,11.36-18.24,20.05-4.35,8.7-6.52,18.89-6.52,30.56s2.17,21.87,6.52,30.56c4.35,8.7,10.43,15.38,18.24,20.05,7.81,4.67,16.87,7.01,27.18,7.01s19.37-2.33,27.18-7.01c7.81-4.67,13.93-11.36,18.36-20.05,4.43-8.7,6.64-18.88,6.64-30.56s-2.22-21.87-6.64-30.56c-4.43-8.7-10.55-15.38-18.36-20.05Z" style="fill: #fff;"/>
    <path d="M988.41,186.89v103.17c0,13.86,3.02,24.2,9.06,31.05,6.04,6.85,14.78,10.27,26.22,10.27s19.97-3.42,26.09-10.27c6.12-6.84,9.18-17.19,9.18-31.05v-68.38c0-9.67,3.38-17.88,10.15-24.65,6.77-6.77,14.98-10.15,24.64-10.15v103.17c0,16.27-3.02,30-9.06,41.2-6.04,11.2-14.42,19.57-25.13,25.13-10.71,5.56-22.92,8.34-36.6,8.34-21.1,0-37.97-6.32-50.62-18.97-12.65-12.64-18.97-31.21-18.97-55.69v-68.38c0-9.67,3.42-17.88,10.27-24.65,6.84-6.77,15.1-10.15,24.77-10.15Z" style="fill: #fff;"/>
    <path d="M1303.23,276.29c0,17.4-3.67,32.78-10.99,46.15-7.33,13.37-17.92,23.72-31.77,31.05-13.86,7.33-30.36,10.99-49.53,10.99h-25.85c-10.15,0-18.81-3.54-25.97-10.63-7.17-7.09-10.75-15.71-10.75-25.85v-102.93c0-10.15,3.58-18.76,10.75-25.85,7.17-7.09,15.83-10.63,25.97-10.63h25.85c19.17,0,35.68,3.62,49.53,10.87,13.85,7.25,24.44,17.48,31.77,30.68,7.33,13.21,10.99,28.59,10.99,46.15Zm-95.2,56.78c18.85,0,33.46-4.95,43.85-14.86,10.39-9.91,15.58-23.88,15.58-41.92s-5.2-32.05-15.58-42.04c-10.39-9.99-25.01-14.98-43.85-14.98h-24.4v89.4c0,6.77,2.38,12.53,7.13,17.28,4.75,4.75,10.51,7.13,17.28,7.13Z" style="fill: #ec135d;"/>
    <path d="M1389.49,195.47c13.37-7.65,28.31-11.48,44.82-11.48s31.45,3.83,44.82,11.48c13.37,7.65,23.92,18.32,31.65,32.01,7.73,13.69,11.6,29.2,11.6,46.51s-3.87,32.86-11.6,46.63c-7.73,13.77-18.28,24.49-31.65,32.13-13.37,7.65-28.31,11.48-44.82,11.48s-31.45-3.82-44.82-11.48c-13.37-7.65-23.92-18.36-31.65-32.13s-11.6-29.31-11.6-46.63,3.87-32.82,11.6-46.51c7.73-13.69,18.28-24.36,31.65-32.01Zm71.88,27.91c-7.81-4.67-16.88-7.01-27.18-7.01s-19.37,2.34-27.18,7.01c-7.81,4.67-13.89,11.36-18.24,20.05-4.35,8.7-6.52,18.89-6.52,30.56s2.17,21.87,6.52,30.56c4.35,8.7,10.43,15.38,18.24,20.05,7.81,4.67,16.87,7.01,27.18,7.01s19.37-2.33,27.18-7.01c7.81-4.67,13.93-11.36,18.36-20.05,4.43-8.7,6.64-18.88,6.64-30.56s-2.22-21.87-6.64-30.56c-4.43-8.7-10.55-15.38-18.36-20.05Z" style="fill: #ec135d;"/>
    <path d="M1608.15,195.47c13.37-7.65,28.31-11.48,44.82-11.48s31.45,3.83,44.82,11.48c13.37,7.65,23.92,18.32,31.65,32.01,7.73,13.69,11.6,29.2,11.6,46.51s-3.87,32.86-11.6,46.63c-7.73,13.77-18.28,24.49-31.65,32.13-13.37,7.65-28.31,11.48-44.82,11.48s-31.45-3.82-44.82-11.48c-13.37-7.65-23.92-18.36-31.65-32.13s-11.6-29.31-11.6-46.63,3.87-32.82,11.6-46.51c7.73-13.69,18.28-24.36,31.65-32.01Zm71.88,27.91c-7.81-4.67-16.88-7.01-27.18-7.01s-19.37,2.34-27.18,7.01c-7.81,4.67-13.89,11.36-18.24,20.05-4.35,8.7-6.52,18.89-6.52,30.56s2.17,21.87,6.52,30.56c4.35,8.7,10.43,15.38,18.24,20.05,7.81,4.67,16.87,7.01,27.18,7.01s19.37-2.33,27.18-7.01c7.81-4.67,13.93-11.36,18.36-20.05,4.43-8.7,6.64-18.88,6.64-30.56s-2.22-21.87-6.64-30.56c-4.43-8.7-10.55-15.38-18.36-20.05Z" style="fill: #ec135d;"/>
    <path d="M1980.72,190.27v173.96c-9.66,0-17.92-3.38-24.77-10.15-6.85-6.77-10.27-14.98-10.27-24.64v-86.5l-44.7,121.29h-6.04c-7.25,0-13.89-2.05-19.93-6.16s-10.35-9.62-12.93-16.55l-36-98.1v120.81h-.24c-9.66,0-17.92-3.38-24.77-10.15-6.85-6.77-10.27-14.98-10.27-24.64V190.27h23.92c2.9,0,5.68,.4,8.34,1.21,2.66,.81,5.07,1.97,7.25,3.5,2.17,1.53,4.15,3.35,5.92,5.44,1.77,2.1,3.14,4.43,4.11,7.01l45.91,113.8,43.25-108.97c2.57-6.6,6.84-11.92,12.81-15.95,5.96-4.02,12.48-6.04,19.57-6.04h18.85Z" style="fill: #ec135d;"/>
  </g>
</svg>